<svg width="500" height="347" viewBox="0 0 500 347" fill="none" xmlns="http://www.w3.org/2000/svg">
<path d="M500 163.962C500 73.6314 388.083 1.18354e-05 250.013 1.18354e-05C111.95 1.18354e-05 0.0306273 73.6314 0.0306273 163.962C0.0306273 166.291 0 172.741 0 173.56C0 269.386 97.8246 347 249.978 347C403.075 347 500 269.407 500 173.579V163.962Z" fill="#2C3164"/>
<path d="M490.429 163.881C490.429 249.039 382.811 318.073 250.058 318.073C117.301 318.073 9.69482 249.039 9.69482 163.881C9.69482 78.7147 117.301 9.67801 250.058 9.67801C382.811 9.67801 490.429 78.7147 490.429 163.881Z" fill="#FFE600"/>
<path d="M170.246 115.232C170.116 115.475 167.72 117.963 169.273 119.961C173.07 124.821 184.781 127.606 196.629 124.944C203.685 123.354 212.722 116.139 221.486 109.173C230.977 101.609 240.398 94.0373 249.867 91.0253C259.891 87.8267 266.313 89.1969 270.556 90.4867C275.213 91.8781 280.684 94.9515 289.417 101.521C305.863 113.919 372.006 171.803 383.427 181.814C392.629 177.642 433.522 159.989 489.106 147.702C484.281 117.989 466.25 90.808 438.917 68.5478C400.825 84.5927 354.262 92.9648 308.73 70.6692C308.499 70.5723 283.855 58.8764 259.547 59.4528C223.427 60.2915 207.782 75.9702 191.213 92.5679L170.246 115.232Z" fill="white"/>
<path d="M380.74 188.107C379.967 187.415 302.973 119.866 285.537 106.72C275.442 99.1297 269.826 97.1926 263.931 96.4414C260.864 96.0422 256.621 96.6139 253.66 97.4265C245.546 99.64 234.938 106.753 225.519 114.242C215.764 122.03 206.573 129.365 198.038 131.281C187.142 133.731 173.829 130.839 167.756 126.722C165.289 125.063 163.56 123.145 162.726 121.196C160.486 115.978 164.627 111.808 165.304 111.109L186.549 88.067C189.013 85.596 191.503 83.1226 194.05 80.6871C187.192 81.5824 180.859 83.3376 174.692 85.0597C166.995 87.2307 159.591 89.293 152.101 89.2907C148.973 89.2907 132.215 86.5362 129.037 85.6692C109.811 80.3918 92.9363 75.2537 67.7286 63.4562C37.5312 85.9999 17.3298 114.19 11.499 145.24C15.8338 146.393 22.8307 148.479 25.7638 149.133C94.1119 164.373 115.404 180.073 119.263 183.344C123.445 178.686 129.473 175.731 136.206 175.731C143.773 175.74 150.586 179.55 154.726 185.437C158.644 182.34 164.041 179.69 171.019 179.692C174.187 179.692 177.479 180.28 180.798 181.412C188.504 184.065 192.483 189.212 194.551 193.869C197.136 192.699 200.319 191.837 204.062 191.846C207.742 191.846 211.57 192.687 215.429 194.362C228.031 199.784 229.995 212.198 228.848 221.557C229.748 221.449 230.65 221.411 231.567 221.411C246.508 221.418 258.657 233.596 258.657 248.587C258.657 253.224 257.474 257.588 255.42 261.412C259.481 263.706 269.847 268.894 278.945 267.739C286.213 266.813 288.972 264.327 289.964 262.924C290.64 261.963 291.356 260.838 290.685 260.03L271.402 238.547C271.402 238.547 268.226 235.535 269.277 234.371C270.365 233.175 272.321 234.888 273.713 236.057C283.53 244.276 295.512 256.683 295.512 256.683C295.712 256.813 296.511 258.381 300.94 259.177C304.758 259.863 311.506 259.468 316.184 255.622C317.362 254.647 318.543 253.425 319.527 252.18C319.454 252.232 319.386 252.322 319.315 252.353C324.246 246.022 318.766 239.62 318.766 239.62L296.249 214.267C296.249 214.267 293.033 211.284 294.124 210.081C295.107 209.039 297.177 210.61 298.586 211.787C305.72 217.766 315.793 227.905 325.441 237.383C327.321 238.772 335.813 244.025 347.041 236.627C353.866 232.15 355.233 226.639 355.04 222.483C354.566 216.984 350.283 213.06 350.283 213.06L319.527 182.057C319.527 182.057 316.281 179.272 317.433 177.864C318.364 176.683 320.481 178.388 321.86 179.55C331.66 187.769 358.185 212.151 358.185 212.151C358.554 212.42 367.721 218.961 379.046 211.732C383.095 209.136 385.682 205.222 385.901 200.679C386.29 192.789 380.74 188.107 380.74 188.107Z" fill="white"/>
<path d="M231.565 227.413C226.797 227.356 221.576 230.198 220.893 229.784C220.521 229.532 221.187 227.613 221.635 226.508C222.092 225.402 228.373 206.454 213.064 199.875C201.349 194.827 194.194 200.503 191.73 203.067C191.082 203.742 190.794 203.685 190.721 202.828C190.486 199.419 188.964 190.187 178.848 187.1C164.402 182.656 155.11 192.774 152.752 196.421C151.699 188.165 144.733 181.754 136.202 181.744C126.936 181.735 119.424 189.263 119.412 198.554C119.41 207.843 126.918 215.374 136.188 215.374C140.688 215.388 144.775 213.581 147.783 210.683C147.878 210.765 147.915 210.926 147.866 211.247C147.162 215.407 145.863 230.526 161.648 236.678C167.98 239.139 173.363 237.311 177.825 234.171C179.161 233.229 179.373 233.623 179.185 234.882C178.612 238.773 179.335 247.093 190.973 251.823C199.829 255.428 205.068 251.733 208.501 248.553C209.995 247.183 210.404 247.41 210.48 249.522C210.902 260.778 220.224 269.708 231.541 269.715C243.2 269.722 252.647 260.268 252.659 248.586C252.669 236.893 243.222 227.543 231.565 227.413Z" fill="white"/>
<path d="M231.565 268.209C220.996 268.197 212.407 259.972 212.021 249.478C211.988 248.573 211.898 246.183 209.881 246.183C209.05 246.183 208.331 246.681 207.5 247.43C205.177 249.594 202.215 251.786 197.895 251.786C195.93 251.786 193.807 251.333 191.562 250.409C180.4 245.88 180.249 238.191 180.706 235.101C180.827 234.274 180.867 233.421 180.304 232.748L179.623 232.134H178.923C178.353 232.134 177.773 232.368 176.98 232.93C173.747 235.198 170.656 236.303 167.507 236.303C165.777 236.303 164.001 235.956 162.215 235.271C147.527 229.533 148.688 215.626 149.404 211.44C149.513 210.594 149.301 209.935 148.763 209.498L147.724 208.641L146.754 209.576C143.891 212.345 140.143 213.854 136.207 213.854C127.794 213.847 120.945 206.987 120.95 198.556C120.957 190.108 127.81 183.26 136.23 183.269C143.833 183.269 150.309 189.005 151.282 196.621L151.8 200.729L154.05 197.256C154.304 196.845 160.467 187.498 171.806 187.51C173.959 187.51 176.188 187.857 178.428 188.551C187.463 191.318 188.994 199.534 189.232 202.954C189.393 204.953 190.808 205.043 191.084 205.043C191.864 205.043 192.441 204.551 192.846 204.117C194.552 202.333 198.267 199.368 204.081 199.368C206.736 199.373 209.568 200.004 212.492 201.268C226.853 207.445 220.339 225.744 220.261 225.937C219.024 228.971 218.98 230.308 220.139 231.083L220.707 231.347H221.119C221.769 231.347 222.575 231.068 223.903 230.617C225.859 229.939 228.811 228.916 231.567 228.923H231.574C242.388 229.046 251.18 237.867 251.172 248.585C251.158 259.414 242.364 268.209 231.565 268.209ZM383.713 180.023C360.001 159.266 305.192 111.487 290.35 100.311C281.867 93.9188 276.083 90.5407 271.006 89.0217C268.721 88.3319 265.569 87.5452 261.505 87.5405C257.724 87.5405 253.672 88.2256 249.439 89.5768C239.848 92.6195 230.29 100.238 221.046 107.604L220.57 107.982C211.957 114.844 203.056 121.945 196.323 123.453C193.386 124.116 190.363 124.461 187.343 124.461C179.804 124.45 173.026 122.271 170.484 119.019C170.065 118.482 170.336 117.611 171.316 116.361L171.443 116.193L192.304 93.6495C208.649 77.2644 224.083 61.7959 259.606 60.9738C260.198 60.9596 260.796 60.9501 261.385 60.9501C283.495 60.9643 305.602 70.8908 308.081 72.0413C328.819 82.178 350.22 87.3326 371.738 87.3515C394.159 87.3586 417.291 81.793 441.618 70.5601C438.901 68.2663 436.07 66.041 433.162 63.8511C411.795 73.1421 391.435 77.8384 371.799 77.829C351.737 77.8125 331.686 72.9815 312.227 63.4613C311.202 62.9699 286.791 51.43 261.397 51.4158C260.733 51.4158 260.052 51.43 259.39 51.437C229.548 52.1363 212.737 62.7668 201.436 72.0743C190.441 72.3389 180.956 75.0013 172.518 77.3636C164.988 79.4613 158.484 81.2851 152.139 81.278C149.529 81.278 144.824 81.0394 144.4 81.0252C137.107 80.8008 100.365 71.7625 71.1309 60.669C68.146 62.7857 65.2742 64.9732 62.4778 67.2009C93.0144 79.7566 130.178 89.4658 141.906 90.2288C145.166 90.4414 148.646 90.8123 152.125 90.8194C159.885 90.8194 167.622 88.6343 175.123 86.5342C179.547 85.2845 184.436 83.9309 189.567 82.9434C188.198 84.2899 186.832 85.6601 185.463 87.0444L164.26 110.035C162.588 111.721 158.974 116.231 161.358 121.782C162.307 124.022 164.234 126.162 166.927 127.986C171.983 131.395 181.027 133.7 189.428 133.707C192.613 133.707 195.628 133.391 198.404 132.765C207.288 130.764 216.607 123.323 226.481 115.451C234.349 109.182 245.528 101.223 254.087 98.8868C256.473 98.2324 259.406 97.8308 261.771 97.8308C262.476 97.8355 263.138 97.8568 263.762 97.9442C269.414 98.6647 274.882 100.595 284.642 107.939C302.035 121.045 379.039 188.584 379.788 189.253C379.847 189.298 384.75 193.545 384.408 200.604C384.227 204.537 382.045 208.036 378.259 210.464C374.973 212.548 371.58 213.616 368.15 213.616C363.003 213.604 359.462 211.185 359.233 211.022C358.951 210.79 332.57 186.534 322.866 178.389C321.316 177.103 319.817 175.948 318.293 175.948C317.483 175.941 316.764 176.288 316.279 176.9C314.752 178.785 316.463 181.398 318.477 183.116L349.299 214.175C349.336 214.213 353.132 217.785 353.551 222.548C353.791 227.697 351.341 231.999 346.236 235.361C342.599 237.756 338.914 238.978 335.312 238.978C330.581 238.978 327.26 236.814 326.527 236.303L322.103 231.935C314.024 223.963 305.682 215.723 299.578 210.611C298.089 209.37 296.497 208.227 294.98 208.227C294.238 208.227 293.559 208.506 293.041 209.052C292.341 209.829 291.861 211.225 293.594 213.538C294.306 214.49 295.147 215.279 295.147 215.279L317.641 240.598C317.827 240.825 322.275 246.124 318.142 251.41L317.353 252.417C316.679 253.168 315.951 253.853 315.261 254.434C311.428 257.595 306.302 257.935 304.276 257.935C303.185 257.935 302.139 257.838 301.227 257.678C299.013 257.276 297.522 256.655 296.803 255.797L296.527 255.521C295.3 254.241 283.964 242.642 274.585 234.791C273.348 233.752 271.81 232.439 270.213 232.439C269.428 232.439 268.721 232.748 268.184 233.35C266.325 235.392 269.117 238.434 270.297 239.554L289.479 260.761C289.455 260.954 289.21 261.394 288.746 262.065C288.058 263.01 285.733 265.341 278.774 266.227C277.944 266.329 277.082 266.376 276.234 266.376C269.058 266.376 261.409 262.884 257.463 260.784C259.255 256.981 260.186 252.8 260.186 248.592C260.198 232.762 247.377 219.892 231.591 219.878C231.256 219.878 230.898 219.892 230.556 219.904C231.075 212.675 230.057 198.993 216.049 192.964C212.021 191.214 207.997 190.325 204.088 190.325C201.03 190.325 198.09 190.85 195.315 191.915C192.417 186.262 187.597 182.142 181.31 179.99C177.839 178.785 174.383 178.178 171.045 178.178C165.217 178.178 159.845 179.893 155.054 183.312C150.467 177.595 143.531 174.2 136.23 174.2C129.846 174.2 123.699 176.766 119.148 181.285C113.181 176.716 89.4971 161.63 26.1175 147.201C23.0478 146.504 16.0038 144.477 11.6855 143.211C10.9694 146.651 10.4251 150.13 10.0647 153.641C10.0647 153.641 21.7568 156.447 24.0561 156.962C88.8021 171.384 110.196 186.38 113.814 189.213C112.592 192.161 111.953 195.345 111.946 198.556C111.939 211.96 122.816 222.888 136.202 222.902C137.705 222.902 139.192 222.774 140.657 222.5C142.671 232.368 149.11 239.852 158.957 243.688C161.829 244.801 164.743 245.368 167.598 245.368C169.443 245.375 171.307 245.141 173.123 244.678C174.939 249.31 179.036 255.079 188.179 258.802C191.381 260.099 194.59 260.777 197.709 260.777C200.253 260.777 202.746 260.333 205.118 259.447C209.502 270.153 219.927 277.25 231.558 277.25C239.261 277.257 246.661 274.11 252.058 268.54C256.673 271.117 266.431 275.768 276.276 275.79C277.553 275.79 278.753 275.7 279.945 275.549C289.728 274.309 294.285 270.479 296.374 267.493C296.749 266.976 297.091 266.421 297.38 265.851C299.694 266.51 302.233 267.054 305.14 267.061C310.484 267.061 315.61 265.237 320.798 261.453C325.889 257.76 329.509 252.483 330.028 247.98C330.037 247.921 330.054 247.85 330.061 247.784C331.771 248.141 333.533 248.328 335.295 248.328C340.794 248.328 346.201 246.603 351.372 243.211C361.347 236.653 363.08 228.085 362.915 222.484C364.664 222.85 366.447 223.039 368.216 223.039C373.385 223.039 378.455 221.475 383.289 218.385C389.468 214.424 393.188 208.357 393.749 201.294C394.142 196.493 392.953 191.653 390.432 187.493C407.14 180.274 445.335 166.301 490.308 156.14C490.038 152.644 489.536 149.19 488.914 145.753C434.493 157.862 393.888 175.483 383.713 180.023Z" fill="#2C3164"/>
</svg>
