<svg width="200" height="200" viewBox="0 0 200 200" fill="none" xmlns="http://www.w3.org/2000/svg">
<path fill-rule="evenodd" clip-rule="evenodd" d="M112.932 117.457C101.596 128.743 85.9365 135.723 68.6392 135.723C34.0445 135.723 6 107.802 6 73.3613C6 38.9201 34.0445 11 68.6392 11C103.234 11 131.278 38.9201 131.278 73.3613C131.278 86.4089 127.253 98.5207 120.372 108.533L194 181.834L185.798 190L112.932 117.457ZM119.679 73.3613C119.679 101.424 96.8274 124.174 68.6392 124.174C40.4509 124.174 17.5999 101.424 17.5999 73.3613C17.5999 45.2981 40.4509 22.5484 68.6392 22.5484C96.8274 22.5484 119.679 45.2981 119.679 73.3613Z" fill="black"/>
</svg>
