<svg version="1" xmlns="http://www.w3.org/2000/svg" width="1333.333" height="1333.333" viewBox="0 0 1000.000000 1000.000000"><path d="M451 154.1c-114.6 8.1-215.8 38.8-297.5 90.2C76 293.1 24.1 357.7 6.4 427.3c-5 19.9-6.4 33.6-6.4 64.2 0 37.1 2.9 60 10.9 86.5 42.7 141.1 191.5 240.7 394.3 264 57.6 6.6 130.6 6.8 186.8.4 57.2-6.4 112.3-19.2 159.5-36.9 64.8-24.4 116.8-56.8 159.1-99 25.7-25.6 43.8-50.1 58.6-79 16.4-32.2 24.9-59.9 29.3-95.7 2-16.7 2.1-63.2 0-78.8-8-60.7-41.6-119-96.5-167.3C815.9 210 691.3 163.8 547.2 154c-17.6-1.2-79.1-1.1-96.2.1zm84 19.9c30.3 1.6 49.4 3.4 74 7.1 14.8 2.2 16.5 2.5 38.5 6.9 76.9 15.5 152.3 46.6 206.8 85.2l10 7.1-3.4 1.7c-13.1 6.7-49.4 17.8-70.4 21.5-55.9 10-105.1 3.1-162-22.5-47.7-21.5-89-29.3-129.7-24.5-36.3 4.2-67.1 16.5-91.5 36.2-3.9 3.2-4.9 3.5-15 4.4-11.7 1.1-26.5 4.1-43.8 8.9-27.3 7.6-32 8.4-48 8.3-16.2-.1-24.3-1.3-51.4-7.9C214.7 298 144.9 276.3 145 274c0-.7 18.4-12.7 30.5-19.8 97.2-57.3 230.7-87.1 359.5-80.2zm2.1 102c27.9 2.8 52.7 9.9 86.5 24.8 39.7 17.6 72.4 25.5 110.9 26.9 43.9 1.5 86.8-7.1 134.8-27.1l13.7-5.8 3.2 2.7c36.9 31.1 66 71.1 81.3 111.9 3.9 10.7 9.8 32.1 9.3 33.8-.2.5-12.5 4-27.3 7.8-57.2 14.4-109.7 31.5-158 51.5-8.8 3.7-17.9 7.4-20.2 8.3l-4.1 1.6-6.9-6c-47.8-42-121.4-105.5-150.8-129.9-33.9-28.3-51.9-40.6-66.5-45.6-9.7-3.3-26-3.8-36.8-1.1-20.7 5.3-28 9.8-76 47-26.1 20.3-34.7 24-55.1 24.1-15.2.1-25.8-2.6-31.8-8.2-1.3-1.1-2.3-2.6-2.3-3.3 0-.7 7.8-9.8 17.3-20.1 45.9-50 63.3-65.2 88.2-77.3 14.1-6.9 23.3-10 37.6-12.9 18.2-3.7 36.4-4.7 53-3.1zm-397.6 17.5c26 10.1 67.3 23.4 95.3 30.5 25.1 6.4 38.7 8.9 54.7 10.2 20.6 1.6 29.9.4 60.5-7.7 13.5-3.6 25.1-6.5 25.8-6.5.7 0-10.5 12.7-24.9 28.2-14.9 16.1-27 30-28 32.3-9.7 20.9 16.6 39.7 55.6 39.8 23.8.1 34.6-4.9 68.1-31 24.9-19.4 35.8-26.7 49.4-33.2 25-12 44.3-8.5 73.1 13.1 15.6 11.8 70.5 58.2 135.4 114.7 65.4 56.9 62.4 53.8 63.3 66.2.6 8.9-1.4 14.3-7.3 19.8-10.6 9.7-25 12.5-37.2 7.1-2.5-1.1-14.5-11.2-30-25.3-47.7-43.3-51.8-46.7-57-46.7-4 0-6.3 3.5-4.7 7.5.5 1.3 16.4 18.2 35.4 37.5 21.8 22.2 35.4 36.8 37 39.8 3.2 6 3.3 14.8.3 20.7-6.4 12.5-25.1 22-38.2 19.5-9.5-1.8-11.8-3.5-33.9-25.2-23.8-23.4-35-33.4-39-34.9-5.9-2.2-10.3 1.6-8 7 .7 1.6 12.3 15.4 25.8 30.5 13.5 15.2 25.3 29.1 26.3 30.8 2.6 5 2.2 11.7-1 16.6-3.8 5.6-9.6 9.9-15.6 11.7-5.8 1.7-18.3 2-22.4.5-1.5-.6-8.9-7.1-16.3-14.4-27.6-27.1-36.6-34.6-41.4-34.6-3.9 0-5.6 1.5-5.6 5s2 6 24.3 30.4c20.5 22.5 20.6 22.6 14.1 26.6-8.9 5.6-23.9 6.5-37.8 2.5-7-2-17.6-6.4-19.4-8-.2-.2.6-3.4 1.8-7.1 6.5-21.1 1.2-42.3-14.5-58-10-10-20.8-15-36.7-16.9l-4.8-.6v-4.4c0-7.2-2.8-19.4-5.9-26.2-7.1-15.1-23.3-25.5-43.2-27.8-4.9-.5-12.7.2-19.9 1.9-2.1.5-2.9 0-5-3.5-9.9-16.4-35.7-26.1-57.4-21.7-3.2.6-9 2.7-13 4.8l-7.3 3.6-5.2-4.7c-17.9-16.1-43.3-17.1-62.4-2.5l-4.6 3.5-6.8-4.6c-8.5-5.7-37-19.6-52.8-25.9-27.4-10.7-71.3-24.2-105.5-32.4-21-5-47.2-12-48.2-12.9-.9-.8 2.8-15 7.2-27.6 7.4-21.5 24.3-51.1 40.7-71.5 14.3-17.8 50.7-52.9 53.6-51.7.7.3 6.6 2.6 13.2 5.2zM50 468c78.6 18.2 139.3 39.4 170.4 59.3 5.2 3.4 5.8 4.1 5.2 6.5-3.7 15.6-2.9 25.8 2.7 37.6 8.3 17.3 24.7 27.8 43.7 27.8h8.6l2.3 6.7c2.9 8.3 9.9 19 15.5 23.5 12.7 10.4 24.6 14.9 38.4 14.4l9-.3 2.3 4.5c4.1 7.7 13.7 16.3 23.1 20.8 4.5 2.2 10.8 4.6 13.9 5.2 5.6 1.3 19.7.9 23.1-.4 1.2-.6 2.3.6 4.8 5.3 4.3 8 15.7 18.9 24.1 23 20.9 10.1 44.6 7.6 62.3-6.6l4.9-4 9.7 4.4c30.9 13.9 60.5 12.1 76.7-4.5l5.2-5.4 5.1 1.1c15.1 3.2 32.6-2.4 46.2-14.8 5.7-5.2 12.8-16.2 12.8-19.7 0-2.1.5-2.2 11.8-2.6 13-.5 18.3-2 29.1-8.6 13.6-8.2 22.7-20.9 25.1-35.1l1.2-7 6.1.5c23.2 2.1 48.3-15.2 53.8-36.9 1.8-7.4.7-21-2.4-28.4l-2.5-6.2 20.4-8.1c45.4-17.8 121.4-41.2 169.2-51.9l8.2-1.9v13.2c0 89.5-57.8 172.2-162 231.7-66.9 38.2-153.8 64.5-242.5 73.4-48.4 4.8-102.1 4.8-151 0-83.9-8.3-165-31.9-231-67.2-39.5-21.2-69.2-42.8-97.6-71.2-36.8-36.9-58.7-73.4-69.5-116.2-4.8-19.1-7.3-44.1-6-60.1l.8-8.5 5.6 1.3c3.1.8 13.6 3.2 23.2 5.4zm232.1 53.7c4 1.3 6.9 3.2 11 7.3 5.8 5.8 8.1 10.6 9.5 20.2.3 2.7.9 4.8 1.3 4.8.3 0 1.8-2 3.4-4.4 4-6.4 12.9-14.3 19.2-17.2 15-6.9 34.9-3.8 44 6.9 3.4 4 7.5 14.3 7.5 19.1 0 5.3 4.6 6 9.8 1.5 6.2-5.5 11.7-7.4 20.7-7.3 14.3.1 26 6.6 31.2 17.1 2.6 5.3 2.8 6.7 2.8 16.8 0 8.8-.5 12.5-2.3 18.2-1.9 5.8-2.1 7.6-1.2 9.3 1.3 2.5 1.9 2.5 15.2-1.1 7.9-2.2 9.1-2.2 14.9-1 23.1 4.7 37.3 26.2 31.5 47.6-3.1 11.9-10.3 20.6-21.4 25.8-6.1 2.9-7.6 3.2-16.2 3.2-8.5 0-10.2-.3-16-3.1-12.3-5.8-20.2-16.7-22.2-30.5-1.7-11.6-3.2-12.3-12.2-5.5-3.3 2.5-7.9 5-10.3 5.7-12.4 3.4-31.5-5-37.6-16.5-1.4-2.7-2.3-6.8-2.6-12-.8-10.8-1.7-11.2-11.7-6.1-7.2 3.7-8.4 4-15.8 4-7.2-.1-8.8-.4-14.5-3.3-15.1-7.9-23.3-23.6-21.4-41.4.5-4.8.3-6.2-1.2-7.8-1.8-1.9-1.8-1.9-5.4.9-6.3 4.9-10.2 6.4-18.4 6.9-7.1.4-8.2.2-14.2-2.7-10.9-5.4-16.9-14.8-16.9-26.6.1-21.2 19.3-35.2 39.5-28.8z"/></svg>